<svg width="209" height="56" viewBox="0 0 209 56" fill="none" xmlns="http://www.w3.org/2000/svg">
<path d="M23.625 25.6953C23.625 24.5547 23.2188 23.6016 22.4062 22.8359C21.6094 22.0703 20.5156 21.5 19.125 21.125C18.1875 20.875 16.6562 20.5625 14.5312 20.1875C12.4062 19.8125 10.8516 19.5078 9.86719 19.2734C8.27344 18.9297 6.80469 18.4375 5.46094 17.7969C4.11719 17.1562 3.03906 16.2031 2.22656 14.9375C1.38281 13.6562 0.960938 12.0859 0.960938 10.2266C0.960938 7.33594 2.15625 5.0625 4.54688 3.40625C6.90625 1.75 10.0469 0.921875 13.9688 0.921875C17.9062 0.921875 21.0625 1.78125 23.4375 3.5C25.7969 5.23438 26.9766 7.64062 26.9766 10.7188V11.6797H22.4766V10.7188C22.4766 6.9375 19.6406 5.04688 13.9688 5.04688C11.2656 5.04688 9.17188 5.48438 7.6875 6.35938C6.21875 7.23438 5.48438 8.52344 5.48438 10.2266C5.48438 11.3672 5.88281 12.3359 6.67969 13.1328C7.47656 13.9297 8.57031 14.5312 9.96094 14.9375C10.9453 15.2188 12.5234 15.5781 14.6953 16.0156C16.8672 16.4375 18.3828 16.75 19.2422 16.9531C21.0703 17.3906 22.6094 17.9297 23.8594 18.5703C25.1094 19.2109 26.1172 20.0938 26.8828 21.2188C27.7109 22.4531 28.125 23.9453 28.125 25.6953C28.125 28.8359 26.7969 31.25 24.1406 32.9375C21.5 34.625 18.1406 35.4688 14.0625 35.4688C9.98438 35.4688 6.625 34.6172 3.98438 32.9141C1.32812 31.2266 0 28.8203 0 25.6953V23.7734H4.52344V25.6953C4.52344 29.4766 7.71094 31.3672 14.0859 31.3672C20.4453 31.3672 23.625 29.4766 23.625 25.6953Z" fill="white"/>
<path d="M59.4609 23.2344L59.3203 25.2031H38.0625C38.0625 26.5469 38.8594 27.9531 40.4531 29.4219C42.0312 30.9062 44.1484 31.6484 46.8047 31.6484C48.7578 31.6484 50.3594 31.2812 51.6094 30.5469C52.6406 29.9219 53.3594 29.3594 53.7656 28.8594L53.9531 28.5312H58.8047C58.7109 28.7656 58.6094 29.0078 58.5 29.2578C58.2969 29.6172 57.9141 30.1719 57.3516 30.9219C56.7422 31.7188 56.0312 32.4297 55.2188 33.0547C54.4375 33.6641 53.2891 34.2188 51.7734 34.7188C50.3359 35.2188 48.6797 35.4688 46.8047 35.4688C42.9141 35.4688 39.7578 34.3594 37.3359 32.1406C34.8828 29.9219 33.6562 26.9531 33.6562 23.2344C33.6562 19.5469 34.875 16.5859 37.3125 14.3516C39.7344 12.1172 42.8203 11 46.5703 11C50.2891 11 53.375 12.1172 55.8281 14.3516C58.25 16.5859 59.4609 19.5469 59.4609 23.2344ZM52.8047 17.0703C51.2422 15.5859 49.1641 14.8438 46.5703 14.8438C43.9453 14.8438 41.8672 15.5859 40.3359 17.0703C38.7891 18.5547 38.0156 20.0156 38.0156 21.4531H55.1016C55.1016 20.0156 54.3359 18.5547 52.8047 17.0703Z" fill="white"/>
<path d="M78.75 11C79.6875 11 80.5156 11.0938 81.2344 11.2812L81.5625 11.3281V15.8516C80.6719 15.5391 79.4922 15.375 78.0234 15.3594C75.4922 15.3594 73.5 16.1641 72.0469 17.7734C70.5938 19.3828 69.8672 21.3984 69.8672 23.8203V35H65.7422V11.4688H69.8672V16.0391H70.1016C70.3359 15.5391 70.7188 14.9531 71.25 14.2812C71.7344 13.6875 72.2734 13.1719 72.8672 12.7344C73.5391 12.2656 74.3984 11.8594 75.4453 11.5156C76.5078 11.1719 77.6094 11 78.75 11Z" fill="white"/>
<path d="M104.742 11.4688H109.055L99.5469 55.7578H93.4062L83.7188 11.4688H88.0312L96.3828 52.5H96.5703L104.742 11.4688Z" fill="white"/>
<path d="M113.367 11.4688H117.492V35H113.367V11.4688ZM117.281 1.55469C117.734 2.00781 117.961 2.5625 117.961 3.21875C117.961 3.875 117.734 4.42969 117.281 4.88281C116.828 5.32031 116.211 5.53906 115.43 5.53906C114.648 5.53906 114.031 5.32031 113.578 4.88281C113.109 4.42969 112.875 3.875 112.875 3.21875C112.875 2.5625 113.109 2.00781 113.578 1.55469C114.047 1.13281 114.664 0.921875 115.43 0.921875C116.195 0.921875 116.812 1.13281 117.281 1.55469Z" fill="white"/>
<path d="M127.406 32.0703C124.969 29.8359 123.75 26.875 123.75 23.1875C123.75 19.5 124.969 16.5469 127.406 14.3281C129.812 12.1094 132.898 11 136.664 11C138.805 11 140.719 11.3594 142.406 12.0781C144.141 12.8125 145.453 13.6953 146.344 14.7266C148.203 16.8672 149.133 18.8281 149.133 20.6094H144.867C144.711 19.9375 144.445 19.2734 144.07 18.6172C143.68 17.9453 143.227 17.3594 142.711 16.8594C142.117 16.2969 141.281 15.8203 140.203 15.4297C139.141 15.0391 137.961 14.8438 136.664 14.8438C134.023 14.8438 131.922 15.625 130.359 17.1875C128.766 18.75 127.969 20.75 127.969 23.1875C127.969 25.625 128.766 27.6328 130.359 29.2109C131.938 30.8047 134.039 31.6016 136.664 31.6016C137.977 31.6016 139.164 31.4062 140.227 31.0156C141.305 30.625 142.133 30.1328 142.711 29.5391C143.789 28.4297 144.461 27.3984 144.727 26.4453L144.867 25.8359H149.133C149.133 27.5859 148.203 29.5312 146.344 31.6719C145.422 32.7344 144.109 33.625 142.406 34.3438C140.719 35.0625 138.805 35.4219 136.664 35.4219C132.914 35.4219 129.828 34.3047 127.406 32.0703Z" fill="white"/>
<path d="M180.211 23.2344L180.07 25.2031H158.812C158.812 26.5469 159.609 27.9531 161.203 29.4219C162.781 30.9062 164.898 31.6484 167.555 31.6484C169.508 31.6484 171.109 31.2812 172.359 30.5469C173.391 29.9219 174.109 29.3594 174.516 28.8594L174.703 28.5312H179.555C179.461 28.7656 179.359 29.0078 179.25 29.2578C179.047 29.6172 178.664 30.1719 178.102 30.9219C177.492 31.7188 176.781 32.4297 175.969 33.0547C175.188 33.6641 174.039 34.2188 172.523 34.7188C171.086 35.2188 169.43 35.4688 167.555 35.4688C163.664 35.4688 160.508 34.3594 158.086 32.1406C155.633 29.9219 154.406 26.9531 154.406 23.2344C154.406 19.5469 155.625 16.5859 158.062 14.3516C160.484 12.1172 163.57 11 167.32 11C171.039 11 174.125 12.1172 176.578 14.3516C179 16.5859 180.211 19.5469 180.211 23.2344ZM173.555 17.0703C171.992 15.5859 169.914 14.8438 167.32 14.8438C164.695 14.8438 162.617 15.5859 161.086 17.0703C159.539 18.5547 158.766 20.0156 158.766 21.4531H175.852C175.852 20.0156 175.086 18.5547 173.555 17.0703Z" fill="white"/>
<path d="M204.234 28.0391C204.234 27.1172 203.789 26.4062 202.898 25.9062C201.977 25.3906 200.859 25.1016 199.547 25.0391C198.188 24.9609 196.727 24.8203 195.164 24.6172C193.477 24.4141 192.008 24.1719 190.758 23.8906C189.414 23.6094 188.297 22.9766 187.406 21.9922C186.5 21.0234 186.047 19.7266 186.047 18.1016C186.047 15.7422 187.055 13.9609 189.07 12.7578C191.086 11.5859 193.695 11 196.898 11C200.148 11 202.773 11.6562 204.773 12.9688C206.758 14.2812 207.75 16.3438 207.75 19.1562H203.531C203.531 17.6875 203 16.6016 201.938 15.8984C200.891 15.1953 199.211 14.8438 196.898 14.8438C192.477 14.8438 190.266 15.9297 190.266 18.1016C190.266 18.9922 190.719 19.6719 191.625 20.1406C192.531 20.625 193.648 20.8984 194.977 20.9609C196.211 21.0234 197.68 21.1562 199.383 21.3594C200.992 21.5781 202.453 21.8359 203.766 22.1328C205.094 22.4609 206.219 23.1172 207.141 24.1016C208.031 25.1172 208.477 26.4297 208.477 28.0391C208.477 29.7891 207.922 31.2422 206.812 32.3984C205.719 33.5391 204.344 34.3359 202.688 34.7891C201.078 35.2422 199.18 35.4688 196.992 35.4688C192.414 35.4688 189.148 34.3438 187.195 32.0938C186.086 30.8125 185.531 29.2188 185.531 27.3125V26.5625H189.75V27.3125C189.75 30.1875 192.164 31.625 196.992 31.625C201.82 31.6562 204.234 30.4609 204.234 28.0391Z" fill="white"/>
</svg>
