<svg width="716" height="69" viewBox="0 0 716 69" fill="none" xmlns="http://www.w3.org/2000/svg">
<path d="M2.1242 68.0417C1.50849 68.0417 0.985135 67.85 0.554138 67.4667C0.184713 67.0194 0 66.4764 0 65.8375V3.25833C0 2.55555 0.184713 2.0125 0.554138 1.62917C0.985135 1.18194 1.50849 0.958332 2.1242 0.958332H6.74202C7.48087 0.958332 8.03501 1.15 8.40443 1.53334C8.77386 1.91667 8.98936 2.23611 9.05093 2.49167L28.6305 41.2083L48.3024 2.49167C48.4255 2.23611 48.641 1.91667 48.9489 1.53334C49.3183 1.15 49.8725 0.958332 50.6113 0.958332H55.1368C55.8141 0.958332 56.3374 1.18194 56.7068 1.62917C57.1378 2.0125 57.3533 2.55555 57.3533 3.25833V65.8375C57.3533 66.4764 57.1378 67.0194 56.7068 67.4667C56.3374 67.85 55.8141 68.0417 55.1368 68.0417H50.6113C49.9956 68.0417 49.4722 67.85 49.0413 67.4667C48.6718 67.0194 48.4871 66.4764 48.4871 65.8375V18.6875L33.0636 49.9292C32.8173 50.5681 32.4479 51.0792 31.9553 51.4625C31.4627 51.7819 30.847 51.9417 30.1082 51.9417H27.2451C26.4447 51.9417 25.7982 51.7819 25.3057 51.4625C24.8747 51.0792 24.5052 50.5681 24.1974 49.9292L8.77386 18.6875V65.8375C8.77386 66.4764 8.55836 67.0194 8.12736 67.4667C7.75794 67.85 7.26537 68.0417 6.64966 68.0417H2.1242Z" fill="white"/>
<path d="M96.5074 69C91.2739 69 86.7792 68.0736 83.0234 66.2208C79.2675 64.3042 76.3737 61.3972 74.3419 57.5C72.31 53.5389 71.1709 48.5875 70.9247 42.6458C70.8631 39.8347 70.8323 37.1514 70.8323 34.5958C70.8323 31.9764 70.8631 29.2611 70.9247 26.45C71.1709 20.5722 72.3408 15.6847 74.4342 11.7875C76.5892 7.82639 79.5446 4.8875 83.3004 2.97083C87.1178 0.990278 91.5201 0 96.5074 0C101.556 0 105.959 0.990278 109.714 2.97083C113.532 4.8875 116.518 7.82639 118.673 11.7875C120.828 15.6847 121.998 20.5722 122.182 26.45C122.306 29.2611 122.367 31.9764 122.367 34.5958C122.367 37.1514 122.306 39.8347 122.182 42.6458C121.998 48.5875 120.859 53.5389 118.765 57.5C116.733 61.3972 113.84 64.3042 110.084 66.2208C106.328 68.0736 101.802 69 96.5074 69ZM96.5074 60.8542C101.248 60.8542 105.097 59.3847 108.052 56.4458C111.069 53.5069 112.701 48.7472 112.947 42.1667C113.07 39.2917 113.132 36.7361 113.132 34.5C113.132 32.2 113.07 29.6444 112.947 26.8333C112.824 22.425 112.023 18.8472 110.546 16.1C109.129 13.3528 107.221 11.3403 104.819 10.0625C102.418 8.78472 99.6475 8.14584 96.5074 8.14584C93.4904 8.14584 90.7813 8.78472 88.38 10.0625C85.9788 11.3403 84.0393 13.3528 82.5616 16.1C81.1454 18.8472 80.345 22.425 80.1603 26.8333C80.0987 29.6444 80.068 32.2 80.068 34.5C80.068 36.7361 80.0987 39.2917 80.1603 42.1667C80.4066 48.7472 82.0382 53.5069 85.0552 56.4458C88.0722 59.3847 91.8896 60.8542 96.5074 60.8542Z" fill="white"/>
<path d="M150.731 68.0417C150.115 68.0417 149.592 67.85 149.161 67.4667C148.791 67.0194 148.607 66.4764 148.607 65.8375V9.4875H130.874C130.258 9.4875 129.735 9.29584 129.304 8.9125C128.935 8.46528 128.75 7.92222 128.75 7.28334V3.25833C128.75 2.55555 128.935 2.0125 129.304 1.62917C129.735 1.18194 130.258 0.958332 130.874 0.958332H175.39C176.067 0.958332 176.59 1.18194 176.96 1.62917C177.391 2.0125 177.606 2.55555 177.606 3.25833V7.28334C177.606 7.92222 177.391 8.46528 176.96 8.9125C176.59 9.29584 176.067 9.4875 175.39 9.4875H157.75V65.8375C157.75 66.4764 157.534 67.0194 157.103 67.4667C156.734 67.85 156.211 68.0417 155.533 68.0417H150.731Z" fill="white"/>
<path d="M190.084 68.0417C189.407 68.0417 188.883 67.85 188.514 67.4667C188.144 67.0194 187.96 66.4764 187.96 65.8375V3.1625C187.96 2.52361 188.144 2.0125 188.514 1.62917C188.883 1.18194 189.407 0.958332 190.084 0.958332H194.979C195.595 0.958332 196.087 1.18194 196.456 1.62917C196.887 2.0125 197.103 2.52361 197.103 3.1625V65.8375C197.103 66.4764 196.887 67.0194 196.456 67.4667C196.087 67.85 195.595 68.0417 194.979 68.0417H190.084Z" fill="white"/>
<path d="M236.395 69C231.161 69 226.667 68.0736 222.911 66.2208C219.155 64.3042 216.261 61.3972 214.229 57.5C212.197 53.5389 211.058 48.5875 210.812 42.6458C210.751 39.8347 210.72 37.1514 210.72 34.5958C210.72 31.9764 210.751 29.2611 210.812 26.45C211.058 20.5722 212.228 15.6847 214.322 11.7875C216.477 7.82639 219.432 4.8875 223.188 2.97083C227.005 0.990278 231.408 0 236.395 0C241.444 0 245.846 0.990278 249.602 2.97083C253.419 4.8875 256.405 7.82639 258.56 11.7875C260.715 15.6847 261.885 20.5722 262.07 26.45C262.193 29.2611 262.255 31.9764 262.255 34.5958C262.255 37.1514 262.193 39.8347 262.07 42.6458C261.885 48.5875 260.746 53.5389 258.653 57.5C256.621 61.3972 253.727 64.3042 249.971 66.2208C246.215 68.0736 241.69 69 236.395 69ZM236.395 60.8542C241.136 60.8542 244.984 59.3847 247.939 56.4458C250.956 53.5069 252.588 48.7472 252.834 42.1667C252.957 39.2917 253.019 36.7361 253.019 34.5C253.019 32.2 252.957 29.6444 252.834 26.8333C252.711 22.425 251.911 18.8472 250.433 16.1C249.017 13.3528 247.108 11.3403 244.707 10.0625C242.306 8.78472 239.535 8.14584 236.395 8.14584C233.378 8.14584 230.669 8.78472 228.268 10.0625C225.866 11.3403 223.927 13.3528 222.449 16.1C221.033 18.8472 220.232 22.425 220.048 26.8333C219.986 29.6444 219.955 32.2 219.955 34.5C219.955 36.7361 219.986 39.2917 220.048 42.1667C220.294 48.7472 221.926 53.5069 224.943 56.4458C227.96 59.3847 231.777 60.8542 236.395 60.8542Z" fill="white"/>
<path d="M277.841 68.0417C277.163 68.0417 276.64 67.85 276.27 67.4667C275.901 67.0194 275.716 66.4764 275.716 65.8375V3.25833C275.716 2.55555 275.901 2.0125 276.27 1.62917C276.64 1.18194 277.163 0.958332 277.841 0.958332H282.089C282.828 0.958332 283.382 1.15 283.751 1.53334C284.121 1.85278 284.336 2.10833 284.398 2.3L315.06 51.175V3.25833C315.06 2.55555 315.245 2.0125 315.614 1.62917C315.984 1.18194 316.507 0.958332 317.184 0.958332H321.617C322.295 0.958332 322.818 1.18194 323.188 1.62917C323.618 2.0125 323.834 2.55555 323.834 3.25833V65.7417C323.834 66.3806 323.618 66.9236 323.188 67.3708C322.818 67.8181 322.326 68.0417 321.71 68.0417H317.277C316.599 68.0417 316.076 67.85 315.707 67.4667C315.399 67.0833 315.183 66.8278 315.06 66.7L284.49 18.3042V65.8375C284.49 66.4764 284.275 67.0194 283.844 67.4667C283.474 67.85 282.951 68.0417 282.274 68.0417H277.841Z" fill="white"/>
<path d="M364.605 68.0417C363.928 68.0417 363.404 67.85 363.035 67.4667C362.666 67.0194 362.481 66.4764 362.481 65.8375V3.25833C362.481 2.55555 362.666 2.0125 363.035 1.62917C363.404 1.18194 363.928 0.958332 364.605 0.958332H385.57C391.912 0.958332 397.022 1.94861 400.901 3.92917C404.78 5.90972 407.612 8.84861 409.398 12.7458C411.183 16.5792 412.107 21.3069 412.169 26.9292C412.23 29.8042 412.261 32.3278 412.261 34.5C412.261 36.6722 412.23 39.1639 412.169 41.975C412.045 47.8528 411.091 52.7403 409.306 56.6375C407.582 60.4708 404.811 63.3458 400.993 65.2625C397.238 67.1153 392.25 68.0417 386.032 68.0417H364.605ZM371.532 59.8958H385.57C389.818 59.8958 393.205 59.2889 395.729 58.075C398.254 56.8611 400.07 54.9125 401.178 52.2292C402.348 49.5458 402.964 46 403.025 41.5917C403.148 39.675 403.21 38.0139 403.21 36.6083C403.21 35.1389 403.21 33.7014 403.21 32.2958C403.21 30.8264 403.148 29.1653 403.025 27.3125C402.902 21.1153 401.486 16.5472 398.777 13.6083C396.068 10.6056 391.512 9.10417 385.108 9.10417H371.532V59.8958Z" fill="white"/>
<path d="M428.28 68.0417C427.603 68.0417 427.08 67.85 426.71 67.4667C426.341 67.0194 426.156 66.4764 426.156 65.8375V3.25833C426.156 2.55555 426.341 2.0125 426.71 1.62917C427.08 1.18194 427.603 0.958332 428.28 0.958332H506.571C507.248 0.958332 507.772 1.18194 508.141 1.62917C508.51 2.0125 508.695 2.55555 508.695 3.25833V6.9C508.695 7.60278 508.51 8.14583 508.141 8.52917C507.772 8.9125 507.248 9.10417 506.571 9.10417H435.022V30.0917H504.539C505.216 30.0917 505.74 30.3153 506.109 30.7625C506.479 31.1458 506.663 31.6889 506.663 32.3917V35.9375C506.663 36.5764 506.479 37.1194 506.109 37.5667C505.74 37.95 505.216 38.1417 504.539 38.1417H435.022V59.8958H507.31C507.987 59.8958 508.51 60.0875 508.88 60.4708C509.249 60.8542 509.434 61.3972 509.434 62.1V65.8375C509.434 66.4764 509.249 67.0194 508.88 67.4667C508.51 67.85 507.987 68.0417 507.31 68.0417H428.28Z" fill="white"/>
<path d="M543.093 69C537.736 69 533.242 68.1694 529.609 66.5083C525.976 64.7833 523.175 62.5792 521.204 59.8958C519.296 57.1486 518.28 54.2417 518.157 51.175C518.157 50.6639 518.341 50.2167 518.711 49.8333C519.142 49.3861 519.634 49.1625 520.189 49.1625H524.899C525.638 49.1625 526.192 49.3542 526.561 49.7375C526.931 50.1208 527.177 50.5681 527.3 51.0792C527.608 52.6125 528.347 54.1458 529.517 55.6792C530.748 57.1486 532.441 58.3944 534.596 59.4167C536.813 60.375 539.645 60.8542 543.093 60.8542C548.388 60.8542 552.267 59.8958 554.73 57.9792C557.254 55.9986 558.516 53.3792 558.516 50.1208C558.516 47.8847 557.839 46.0958 556.485 44.7542C555.192 43.3486 553.191 42.1028 550.481 41.0167C547.772 39.9306 544.263 38.7486 539.953 37.4708C535.458 36.1292 531.733 34.6597 528.778 33.0625C525.822 31.4653 523.606 29.4847 522.128 27.1208C520.712 24.7569 520.004 21.7542 520.004 18.1125C520.004 14.6625 520.897 11.5958 522.682 8.9125C524.468 6.16528 527.023 3.99306 530.348 2.39583C533.734 0.79861 537.829 0 542.631 0C546.449 0 549.773 0.543056 552.606 1.62917C555.499 2.65139 557.901 4.05694 559.809 5.84583C561.718 7.57083 563.165 9.45555 564.15 11.5C565.135 13.4806 565.659 15.4292 565.72 17.3458C565.72 17.7931 565.566 18.2403 565.258 18.6875C564.951 19.0708 564.458 19.2625 563.781 19.2625H558.886C558.455 19.2625 557.993 19.1347 557.501 18.8792C557.07 18.6236 556.731 18.1444 556.485 17.4417C556.115 14.8222 554.699 12.6181 552.236 10.8292C549.773 9.04028 546.572 8.14584 542.631 8.14584C538.629 8.14584 535.366 8.94445 532.841 10.5417C530.379 12.1389 529.147 14.6306 529.147 18.0167C529.147 20.1889 529.732 22.0097 530.902 23.4792C532.072 24.8847 533.919 26.1306 536.443 27.2167C538.968 28.3028 542.262 29.4528 546.325 30.6667C551.251 32.0722 555.284 33.5736 558.424 35.1708C561.564 36.7042 563.873 38.6528 565.351 41.0167C566.89 43.3167 567.66 46.2875 567.66 49.9292C567.66 53.9542 566.644 57.4042 564.612 60.2792C562.58 63.0903 559.717 65.2625 556.023 66.7958C552.39 68.2653 548.08 69 543.093 69Z" fill="white"/>
<path d="M581.889 68.0417C581.212 68.0417 580.688 67.85 580.319 67.4667C579.95 67.0194 579.765 66.4764 579.765 65.8375V3.1625C579.765 2.52361 579.95 2.0125 580.319 1.62917C580.688 1.18194 581.212 0.958332 581.889 0.958332H586.784C587.4 0.958332 587.892 1.18194 588.262 1.62917C588.693 2.0125 588.908 2.52361 588.908 3.1625V65.8375C588.908 66.4764 588.693 67.0194 588.262 67.4667C587.892 67.85 587.4 68.0417 586.784 68.0417H581.889Z" fill="white"/>
<path d="M628.477 69C623.059 69 618.441 67.9458 614.624 65.8375C610.868 63.7292 607.974 60.7583 605.942 56.925C603.972 53.0917 602.864 48.5875 602.617 43.4125C602.556 40.6014 602.525 37.6306 602.525 34.5C602.525 31.3056 602.556 28.2708 602.617 25.3958C602.864 20.2208 603.972 15.7486 605.942 11.9792C607.974 8.20972 610.899 5.27083 614.716 3.1625C618.533 1.05417 623.12 0 628.477 0C632.849 0 636.635 0.638888 639.837 1.91666C643.039 3.19445 645.655 4.82361 647.687 6.80416C649.781 8.72083 651.32 10.7333 652.305 12.8417C653.352 14.95 653.906 16.8028 653.968 18.4C654.029 18.975 653.875 19.4542 653.506 19.8375C653.136 20.1569 652.644 20.3167 652.028 20.3167H646.579C645.963 20.3167 645.502 20.1889 645.194 19.9333C644.947 19.6778 644.701 19.2306 644.455 18.5917C643.901 16.9306 642.977 15.3014 641.684 13.7042C640.453 12.1069 638.76 10.7972 636.605 9.775C634.511 8.68889 631.802 8.14584 628.477 8.14584C623.613 8.14584 619.672 9.51945 616.656 12.2667C613.7 15.0139 612.099 19.55 611.853 25.875C611.668 31.5611 611.668 37.2472 611.853 42.9333C612.099 49.3222 613.731 53.9222 616.748 56.7333C619.765 59.4806 623.705 60.8542 628.569 60.8542C631.833 60.8542 634.727 60.2472 637.251 59.0333C639.837 57.7556 641.869 55.8069 643.347 53.1875C644.824 50.5681 645.563 47.2458 645.563 43.2208V39.1958H631.71C631.094 39.1958 630.571 39.0042 630.14 38.6208C629.77 38.1736 629.585 37.5986 629.585 36.8958V33.8292C629.585 33.1264 629.77 32.5833 630.14 32.2C630.571 31.7528 631.094 31.5292 631.71 31.5292H652.582C653.259 31.5292 653.783 31.7528 654.152 32.2C654.522 32.5833 654.706 33.1264 654.706 33.8292V43.0292C654.706 48.2681 653.66 52.8361 651.566 56.7333C649.534 60.6306 646.548 63.6653 642.608 65.8375C638.667 67.9458 633.957 69 628.477 69Z" fill="white"/>
<path d="M670.007 68.0417C669.329 68.0417 668.806 67.85 668.436 67.4667C668.067 67.0194 667.882 66.4764 667.882 65.8375V3.25833C667.882 2.55555 668.067 2.0125 668.436 1.62917C668.806 1.18194 669.329 0.958332 670.007 0.958332H674.255C674.994 0.958332 675.548 1.15 675.917 1.53334C676.287 1.85278 676.502 2.10833 676.564 2.3L707.226 51.175V3.25833C707.226 2.55555 707.411 2.0125 707.78 1.62917C708.15 1.18194 708.673 0.958332 709.35 0.958332H713.783C714.461 0.958332 714.984 1.18194 715.354 1.62917C715.784 2.0125 716 2.55555 716 3.25833V65.7417C716 66.3806 715.784 66.9236 715.354 67.3708C714.984 67.8181 714.492 68.0417 713.876 68.0417H709.443C708.765 68.0417 708.242 67.85 707.873 67.4667C707.565 67.0833 707.349 66.8278 707.226 66.7L676.656 18.3042V65.8375C676.656 66.4764 676.441 67.0194 676.01 67.4667C675.64 67.85 675.117 68.0417 674.44 68.0417H670.007Z" fill="white"/>
</svg>
